# xmcd
#
# Track frame offsets:
#	150
#	17435
#	35040
#	49891
#	68539
#	89294
#	108240
#	123110
#	141136
#	158378
#
# Disc length: 2359 seconds
#
# Revision: 0
# Processed by: cddbd v1.5.2PL0 Copyright (c) Steve Scherf et al.
# Submitted via: EasyCDDAExtractor 10.0.2.1
#
DISCID=7209350a
DTITLE=林峯 - Your Love
DYEAR=2008
DGENRE=pop
TTITLE0=愛不疚
TTITLE1=愛人與海
TTITLE2=Tonight
TTITLE3=明天以後
TTITLE4=憑良心說再見
TTITLE5=影子的愛情故事
TTITLE6=浮生若水
TTITLE7=All About Your Love
TTITLE8=夏雪
TTITLE9=明天以後 (國)
EXTD=
EXTT0=
EXTT1=
EXTT2=
EXTT3=
EXTT4=
EXTT5=
EXTT6=
EXTT7=
EXTT8=
EXTT9=
PLAYORDER=
